<svg id="svg" version="1.1" xmlns="http://www.w3.org/2000/svg" xmlns:xlink="http://www.w3.org/1999/xlink" width="400" height="400" viewBox="0, 0, 400,400"><g id="svgg"><path id="path0" d="M117.800 0.273 C 116.920 0.372,116.029 0.621,115.820 0.827 C 115.611 1.032,114.846 1.200,114.120 1.200 C 113.394 1.200,112.800 1.380,112.800 1.600 C 112.800 1.820,112.457 2.000,112.038 2.000 C 111.222 2.000,107.888 3.601,107.667 4.100 C 107.593 4.265,107.188 4.400,106.767 4.400 C 106.345 4.400,106.000 4.580,106.000 4.800 C 106.000 5.020,105.640 5.200,105.200 5.200 C 104.760 5.200,104.400 5.380,104.400 5.600 C 104.400 5.820,104.122 6.000,103.783 6.000 C 103.444 6.000,102.780 6.360,102.308 6.800 C 101.836 7.240,101.213 7.600,100.925 7.600 C 100.636 7.600,100.400 7.758,100.400 7.951 C 100.400 8.145,99.860 8.527,99.199 8.800 C 97.656 9.439,89.600 17.490,89.600 18.392 C 89.600 18.621,89.060 19.372,88.400 20.063 C 87.740 20.754,87.200 21.562,87.200 21.859 C 87.200 22.157,87.020 22.400,86.800 22.400 C 86.580 22.400,86.400 22.760,86.400 23.200 C 86.400 23.640,86.254 24.000,86.075 24.000 C 85.896 24.000,85.502 24.630,85.200 25.400 C 84.898 26.170,84.504 26.800,84.325 26.800 C 84.146 26.800,84.000 27.149,84.000 27.576 C 84.000 28.003,83.820 28.464,83.600 28.600 C 83.380 28.736,83.200 29.287,83.200 29.824 C 83.200 30.361,83.020 30.800,82.800 30.800 C 82.580 30.800,82.400 31.340,82.400 32.000 C 82.400 32.660,82.220 33.200,82.000 33.200 C 81.780 33.200,81.600 33.909,81.600 34.776 C 81.600 35.643,81.420 36.464,81.200 36.600 C 80.980 36.736,80.800 37.467,80.800 38.224 C 80.800 39.333,80.645 39.600,80.000 39.600 C 79.560 39.600,79.200 39.420,79.200 39.200 C 79.200 38.980,78.480 38.800,77.600 38.800 C 76.720 38.800,76.000 38.620,76.000 38.400 C 76.000 38.160,74.408 38.000,72.024 38.000 C 69.804 38.000,67.938 37.823,67.800 37.600 C 67.664 37.380,66.764 37.200,65.800 37.200 C 64.836 37.200,63.936 37.380,63.800 37.600 C 63.664 37.820,62.393 38.000,60.976 38.000 C 59.525 38.000,58.400 38.175,58.400 38.400 C 58.400 38.620,57.680 38.800,56.800 38.800 C 55.920 38.800,55.200 38.980,55.200 39.200 C 55.200 39.420,54.660 39.600,54.000 39.600 C 53.340 39.600,52.800 39.780,52.800 40.000 C 52.800 40.220,52.260 40.400,51.600 40.400 C 50.940 40.400,50.400 40.580,50.400 40.800 C 50.400 41.020,50.141 41.200,49.824 41.200 C 49.288 41.200,45.442 43.074,43.230 44.413 C 42.696 44.736,41.724 45.495,41.070 46.100 C 40.416 46.705,39.723 47.200,39.530 47.200 C 39.087 47.200,35.600 50.665,35.600 51.105 C 35.600 51.285,34.880 52.228,34.000 53.200 C 33.120 54.172,32.400 55.200,32.400 55.484 C 32.400 55.768,32.242 56.000,32.049 56.000 C 31.855 56.000,31.473 56.540,31.200 57.200 C 30.927 57.860,30.545 58.400,30.351 58.400 C 30.158 58.400,30.000 58.760,30.000 59.200 C 30.000 59.640,29.820 60.000,29.600 60.000 C 29.380 60.000,29.200 60.450,29.200 61.000 C 29.200 61.550,29.020 62.000,28.800 62.000 C 28.580 62.000,28.400 62.349,28.400 62.776 C 28.400 63.203,28.220 63.664,28.000 63.800 C 27.780 63.936,27.600 64.566,27.600 65.200 C 27.600 65.834,27.420 66.464,27.200 66.600 C 26.980 66.736,26.800 67.366,26.800 68.000 C 26.800 68.634,26.646 69.248,26.457 69.365 C 24.955 70.293,24.952 167.305,26.454 168.234 C 26.645 168.351,26.800 168.898,26.800 169.449 C 26.800 170.485,29.115 175.698,29.680 175.933 C 29.856 176.007,30.000 176.330,30.000 176.652 C 30.000 176.973,30.450 177.686,31.000 178.236 C 31.550 178.786,32.000 179.398,32.000 179.596 C 32.000 180.173,36.703 184.800,37.290 184.800 C 37.583 184.800,38.083 185.160,38.400 185.600 C 38.717 186.040,39.297 186.400,39.688 186.400 C 40.080 186.400,40.400 186.540,40.400 186.712 C 40.400 187.217,45.769 189.600,46.908 189.600 C 47.483 189.600,48.064 189.780,48.200 190.000 C 48.336 190.220,49.067 190.400,49.824 190.400 L 51.200 190.400 51.200 279.776 C 51.200 338.929,51.335 369.236,51.600 369.400 C 51.820 369.536,52.000 370.346,52.000 371.200 C 52.000 372.054,52.180 372.864,52.400 373.000 C 52.620 373.136,52.800 373.687,52.800 374.224 C 52.800 374.761,52.980 375.200,53.200 375.200 C 53.420 375.200,53.600 375.639,53.600 376.176 C 53.600 376.713,53.780 377.264,54.000 377.400 C 54.220 377.536,54.400 377.997,54.400 378.424 C 54.400 378.851,54.580 379.200,54.800 379.200 C 55.020 379.200,55.200 379.560,55.200 380.000 C 55.200 380.440,55.380 380.800,55.600 380.800 C 55.820 380.800,56.000 381.120,56.000 381.512 C 56.000 381.903,56.360 382.483,56.800 382.800 C 57.240 383.117,57.600 383.697,57.600 384.088 C 57.600 384.480,57.739 384.800,57.909 384.800 C 58.079 384.800,58.554 385.424,58.965 386.187 C 59.826 387.786,64.534 392.400,65.305 392.400 C 65.590 392.400,66.083 392.760,66.400 393.200 C 66.717 393.640,67.231 394.000,67.541 394.000 C 67.852 394.000,68.399 394.315,68.757 394.700 C 69.596 395.601,71.023 396.400,71.795 396.400 C 72.128 396.400,72.400 396.580,72.400 396.800 C 72.400 397.020,72.760 397.200,73.200 397.200 C 73.640 397.200,74.000 397.380,74.000 397.600 C 74.000 397.820,74.360 398.000,74.800 398.000 C 75.240 398.000,75.600 398.180,75.600 398.400 C 75.600 398.620,76.035 398.800,76.567 398.800 C 77.098 398.800,77.608 399.025,77.700 399.300 C 77.945 400.035,252.455 400.035,252.700 399.300 C 252.792 399.025,253.392 398.800,254.033 398.800 C 254.675 398.800,255.200 398.620,255.200 398.400 C 255.200 398.180,255.650 398.000,256.200 398.000 C 256.750 398.000,257.200 397.820,257.200 397.600 C 257.200 397.380,257.560 397.200,258.000 397.200 C 258.440 397.200,258.800 397.020,258.800 396.800 C 258.800 396.580,259.160 396.400,259.600 396.400 C 260.040 396.400,260.400 396.220,260.400 396.000 C 260.400 395.780,260.720 395.600,261.112 395.600 C 261.503 395.600,262.083 395.240,262.400 394.800 C 262.717 394.360,263.257 394.000,263.600 394.000 C 263.943 394.000,264.483 393.640,264.800 393.200 C 265.117 392.760,265.620 392.400,265.917 392.400 C 266.214 392.400,266.687 392.175,266.968 391.900 C 267.249 391.625,268.445 390.502,269.625 389.404 C 270.805 388.307,272.540 386.237,273.481 384.804 C 274.421 383.372,275.373 381.983,275.595 381.717 C 275.818 381.451,276.000 380.956,276.000 380.617 C 276.000 380.278,276.180 380.000,276.400 380.000 C 276.620 380.000,276.800 379.460,276.800 378.800 C 276.800 378.140,276.980 377.600,277.200 377.600 C 277.420 377.600,277.600 377.240,277.600 376.800 C 277.600 376.360,277.780 376.000,278.000 376.000 C 278.220 376.000,278.400 375.640,278.400 375.200 C 278.400 374.760,278.580 374.400,278.800 374.400 C 279.020 374.400,279.200 373.680,279.200 372.800 C 279.200 371.920,279.380 371.200,279.600 371.200 C 279.853 371.200,280.000 368.402,280.000 363.606 L 280.000 356.011 305.900 355.845 C 331.309 355.682,336.618 355.500,337.380 354.766 C 337.589 354.565,338.253 354.400,338.856 354.400 C 339.459 354.400,340.064 354.220,340.200 354.000 C 340.336 353.780,341.067 353.600,341.824 353.600 C 342.581 353.600,343.200 353.420,343.200 353.200 C 343.200 352.980,343.560 352.800,344.000 352.800 C 344.440 352.800,344.800 352.620,344.800 352.400 C 344.800 352.180,345.340 352.000,346.000 352.000 C 346.660 352.000,347.200 351.820,347.200 351.600 C 347.200 351.380,347.560 351.200,348.000 351.200 C 348.440 351.200,348.800 351.020,348.800 350.800 C 348.800 350.580,349.036 350.400,349.325 350.400 C 349.613 350.400,350.236 350.040,350.708 349.600 C 351.180 349.160,351.804 348.800,352.095 348.800 C 352.386 348.800,352.883 348.440,353.200 348.000 C 353.517 347.560,353.989 347.200,354.248 347.200 C 354.760 347.200,358.236 343.869,359.189 342.465 C 359.513 341.988,360.059 341.508,360.403 341.399 C 360.746 341.290,361.349 340.656,361.742 339.990 C 362.136 339.323,362.895 338.341,363.429 337.807 C 363.963 337.273,364.400 336.558,364.400 336.218 C 364.400 335.878,364.580 335.600,364.800 335.600 C 365.020 335.600,365.200 335.364,365.200 335.075 C 365.200 334.787,365.560 334.164,366.000 333.692 C 366.440 333.220,366.800 332.556,366.800 332.217 C 366.800 331.878,366.980 331.600,367.200 331.600 C 367.420 331.600,367.600 331.240,367.600 330.800 C 367.600 330.360,367.780 330.000,368.000 330.000 C 368.220 330.000,368.400 329.561,368.400 329.024 C 368.400 328.487,368.580 327.936,368.800 327.800 C 369.020 327.664,369.200 327.203,369.200 326.776 C 369.200 326.349,369.380 326.000,369.600 326.000 C 369.820 326.000,370.000 325.561,370.000 325.024 C 370.000 324.487,370.180 323.936,370.400 323.800 C 370.620 323.664,370.800 323.124,370.800 322.600 C 370.800 322.076,370.980 321.536,371.200 321.400 C 371.420 321.264,371.600 320.533,371.600 319.776 C 371.600 319.019,371.780 318.400,372.000 318.400 C 372.220 318.400,372.400 317.691,372.400 316.824 C 372.400 315.957,372.580 315.136,372.800 315.000 C 373.020 314.864,373.200 313.809,373.200 312.656 C 373.200 311.503,373.361 310.389,373.558 310.180 C 374.382 309.303,374.525 299.284,374.506 243.400 C 374.487 185.963,374.404 181.552,373.211 174.400 C 372.972 172.970,372.673 171.124,372.546 170.297 C 372.419 169.471,372.155 168.695,371.958 168.574 C 371.761 168.452,371.597 167.958,371.594 167.476 C 371.587 166.519,370.713 163.780,370.274 163.341 C 370.123 163.190,370.000 162.657,370.000 162.157 C 370.000 161.657,369.820 161.136,369.600 161.000 C 369.380 160.864,369.200 160.403,369.200 159.976 C 369.200 159.549,369.020 159.200,368.800 159.200 C 368.580 159.200,368.400 158.840,368.400 158.400 C 368.400 157.960,368.220 157.600,368.000 157.600 C 367.780 157.600,367.600 157.240,367.600 156.800 C 367.600 156.360,367.420 156.000,367.200 156.000 C 366.980 156.000,366.800 155.640,366.800 155.200 C 366.800 154.760,366.620 154.400,366.400 154.400 C 366.180 154.400,366.000 154.040,366.000 153.600 C 366.000 153.160,365.820 152.800,365.600 152.800 C 365.380 152.800,365.200 152.480,365.200 152.088 C 365.200 151.697,364.840 151.117,364.400 150.800 C 363.960 150.483,363.600 150.020,363.600 149.771 C 363.600 149.522,363.105 148.793,362.500 148.150 C 361.895 147.508,360.893 146.307,360.273 145.482 C 358.965 143.741,357.160 142.000,356.665 142.000 C 356.476 142.000,355.817 141.460,355.200 140.800 C 354.583 140.140,353.881 139.600,353.640 139.600 C 353.398 139.600,353.200 139.420,353.200 139.200 C 353.200 138.980,353.012 138.800,352.783 138.800 C 352.554 138.800,351.980 138.440,351.508 138.000 C 351.036 137.560,350.413 137.200,350.125 137.200 C 349.836 137.200,349.600 137.020,349.600 136.800 C 349.600 136.580,349.240 136.400,348.800 136.400 C 348.360 136.400,348.000 136.220,348.000 136.000 C 348.000 135.780,347.640 135.600,347.200 135.600 C 346.760 135.600,346.400 135.420,346.400 135.200 C 346.400 134.980,345.860 134.800,345.200 134.800 C 344.540 134.800,344.000 134.620,344.000 134.400 C 344.000 134.180,343.460 134.000,342.800 134.000 C 342.140 134.000,341.600 133.820,341.600 133.600 C 341.600 133.380,340.970 133.200,340.200 133.200 C 339.430 133.200,338.800 133.020,338.800 132.800 C 338.800 132.580,337.900 132.400,336.800 132.400 C 335.700 132.400,334.800 132.220,334.800 132.000 C 334.800 131.737,325.267 131.600,307.000 131.600 L 279.200 131.600 279.200 115.200 C 279.200 104.533,279.060 98.800,278.800 98.800 C 278.580 98.800,278.400 98.260,278.400 97.600 C 278.400 96.940,278.220 96.400,278.000 96.400 C 277.780 96.400,277.600 95.860,277.600 95.200 C 277.600 94.540,277.780 94.000,278.000 94.000 C 278.220 94.000,278.400 93.640,278.400 93.200 C 278.400 92.760,278.580 92.400,278.800 92.400 C 279.020 92.400,279.200 92.130,279.200 91.800 C 279.200 91.470,279.380 91.200,279.600 91.200 C 279.820 91.200,280.000 90.930,280.000 90.600 C 280.000 90.270,280.180 90.000,280.400 90.000 C 280.620 90.000,280.800 89.550,280.800 89.000 C 280.800 88.450,280.980 88.000,281.200 88.000 C 281.420 88.000,281.600 87.640,281.600 87.200 C 281.600 86.760,281.780 86.400,282.000 86.400 C 282.220 86.400,282.400 85.950,282.400 85.400 C 282.400 84.850,282.580 84.400,282.800 84.400 C 283.020 84.400,283.200 83.590,283.200 82.600 C 283.200 81.610,283.380 80.800,283.600 80.800 C 283.822 80.800,284.000 79.733,284.000 78.400 C 284.000 77.067,284.178 76.000,284.400 76.000 C 284.643 76.000,284.800 74.200,284.800 71.400 C 284.800 68.600,284.643 66.800,284.400 66.800 C 284.180 66.800,284.000 65.821,284.000 64.624 C 284.000 63.427,283.820 62.336,283.600 62.200 C 283.380 62.064,283.200 61.333,283.200 60.576 C 283.200 59.819,283.020 59.200,282.800 59.200 C 282.580 59.200,282.400 58.851,282.400 58.424 C 282.400 57.997,282.220 57.536,282.000 57.400 C 281.780 57.264,281.600 56.713,281.600 56.176 C 281.600 55.639,281.420 55.200,281.200 55.200 C 280.980 55.200,280.800 54.840,280.800 54.400 C 280.800 53.960,280.620 53.600,280.400 53.600 C 280.180 53.600,280.000 53.240,280.000 52.800 C 280.000 52.360,279.820 52.000,279.600 52.000 C 279.380 52.000,279.200 51.680,279.200 51.288 C 279.200 50.897,278.840 50.317,278.400 50.000 C 277.960 49.683,277.600 49.175,277.600 48.872 C 277.600 48.569,277.095 47.844,276.479 47.260 C 275.862 46.677,274.798 45.390,274.114 44.400 C 272.837 42.550,271.457 41.200,270.844 41.200 C 270.653 41.200,269.795 40.525,268.938 39.700 C 268.080 38.875,266.889 37.945,266.289 37.632 C 265.690 37.320,265.200 36.915,265.200 36.732 C 265.200 36.550,264.840 36.400,264.400 36.400 C 263.960 36.400,263.600 36.220,263.600 36.000 C 263.600 35.780,263.240 35.600,262.800 35.600 C 262.360 35.600,262.000 35.420,262.000 35.200 C 262.000 34.980,261.640 34.800,261.200 34.800 C 260.760 34.800,260.400 34.620,260.400 34.400 C 260.400 34.180,260.040 34.000,259.600 34.000 C 259.160 34.000,258.800 33.820,258.800 33.600 C 258.800 33.380,258.361 33.200,257.824 33.200 C 257.287 33.200,256.736 33.020,256.600 32.800 C 256.464 32.580,255.924 32.400,255.400 32.400 C 254.876 32.400,254.336 32.220,254.200 32.000 C 254.064 31.780,253.153 31.600,252.176 31.600 C 251.199 31.600,250.400 31.420,250.400 31.200 C 250.400 30.657,234.536 30.657,234.200 31.200 C 234.064 31.420,233.421 31.600,232.771 31.600 C 232.121 31.600,231.187 31.808,230.695 32.062 C 227.613 33.655,227.702 33.682,224.110 30.098 C 222.399 28.392,220.573 26.727,220.051 26.398 C 219.529 26.069,218.867 25.575,218.580 25.300 C 218.292 25.025,217.840 24.800,217.575 24.800 C 217.311 24.800,216.802 24.485,216.446 24.100 C 215.696 23.290,214.036 22.265,211.900 21.294 C 211.075 20.918,210.400 20.474,210.400 20.306 C 210.400 20.138,210.040 20.000,209.600 20.000 C 209.160 20.000,208.800 19.820,208.800 19.600 C 208.800 19.380,208.361 19.200,207.824 19.200 C 207.287 19.200,206.736 19.020,206.600 18.800 C 206.464 18.580,205.924 18.400,205.400 18.400 C 204.876 18.400,204.336 18.220,204.200 18.000 C 204.064 17.780,203.423 17.600,202.776 17.600 C 202.129 17.600,201.600 17.420,201.600 17.200 C 201.600 16.980,200.610 16.800,199.400 16.800 C 198.190 16.800,197.200 16.620,197.200 16.400 C 197.200 16.147,194.333 16.000,189.400 16.000 C 184.467 16.000,181.600 16.147,181.600 16.400 C 181.600 16.620,180.891 16.800,180.024 16.800 C 179.157 16.800,178.336 16.980,178.200 17.200 C 178.064 17.420,177.243 17.600,176.376 17.600 C 175.509 17.600,174.800 17.780,174.800 18.000 C 174.800 18.220,174.361 18.400,173.824 18.400 C 173.287 18.400,172.736 18.580,172.600 18.800 C 172.464 19.020,172.003 19.200,171.576 19.200 C 171.149 19.200,170.800 19.380,170.800 19.600 C 170.800 19.820,170.440 20.000,170.000 20.000 C 169.560 20.000,169.200 20.180,169.200 20.400 C 169.200 20.620,168.840 20.800,168.400 20.800 C 167.900 20.800,167.600 20.533,167.600 20.088 C 167.600 19.697,167.240 19.117,166.800 18.800 C 166.360 18.483,166.000 17.991,166.000 17.707 C 166.000 17.033,158.913 9.948,157.268 8.976 C 156.571 8.565,156.000 8.086,156.000 7.914 C 156.000 7.741,155.764 7.600,155.475 7.600 C 155.187 7.600,154.564 7.240,154.092 6.800 C 153.620 6.360,152.956 6.000,152.617 6.000 C 152.278 6.000,152.000 5.820,152.000 5.600 C 152.000 5.380,151.640 5.200,151.200 5.200 C 150.760 5.200,150.400 5.020,150.400 4.800 C 150.400 4.580,150.040 4.400,149.600 4.400 C 149.160 4.400,148.800 4.220,148.800 4.000 C 148.800 3.780,148.440 3.600,148.000 3.600 C 147.560 3.600,147.200 3.420,147.200 3.200 C 147.200 2.980,146.840 2.800,146.400 2.800 C 145.960 2.800,145.600 2.620,145.600 2.400 C 145.600 2.180,145.060 2.000,144.400 2.000 C 143.740 2.000,143.200 1.820,143.200 1.600 C 143.200 1.380,142.606 1.200,141.880 1.200 C 141.154 1.200,140.336 0.976,140.062 0.702 C 139.562 0.202,121.506 -0.146,117.800 0.273 M128.671 15.233 C 137.817 16.499,143.636 19.550,149.555 26.182 C 150.954 27.748,154.000 32.515,154.000 33.137 C 154.000 33.567,156.265 37.967,156.923 38.815 C 159.391 41.995,164.889 42.435,168.471 39.740 C 172.166 36.960,174.146 35.600,174.501 35.600 C 174.689 35.600,175.671 35.223,176.683 34.762 C 183.091 31.843,192.776 31.798,199.074 34.658 C 200.215 35.176,201.261 35.600,201.397 35.600 C 201.862 35.600,206.997 39.271,207.744 40.137 C 208.153 40.612,209.323 41.928,210.344 43.061 C 211.365 44.195,213.366 46.771,214.791 48.785 C 218.460 53.972,221.699 55.340,225.436 53.281 C 232.865 49.187,235.768 48.297,241.655 48.308 C 246.489 48.317,248.124 48.714,252.964 51.056 C 264.925 56.845,270.047 76.863,261.834 85.725 L 260.838 86.800 231.615 86.800 C 198.180 86.800,200.074 86.604,197.507 90.335 L 196.248 92.166 195.974 103.783 C 195.652 117.467,195.393 118.683,191.274 125.848 C 188.544 130.596,181.152 136.265,175.400 138.022 C 174.520 138.291,173.440 138.654,173.000 138.829 C 169.318 140.294,157.914 140.231,156.220 138.735 C 156.011 138.551,155.462 138.400,155.000 138.400 C 154.538 138.400,153.989 138.249,153.780 138.064 C 153.571 137.879,152.770 137.486,152.000 137.191 C 148.649 135.904,143.472 131.689,141.204 128.400 C 140.673 127.630,140.118 126.910,139.970 126.800 C 139.240 126.256,136.791 120.567,135.837 117.200 C 133.388 108.556,128.482 106.429,121.766 111.099 C 121.528 111.264,120.379 112.840,119.214 114.600 C 114.982 120.990,110.556 124.437,104.000 126.448 C 101.754 127.137,92.866 127.155,91.411 126.473 C 90.855 126.213,89.995 125.843,89.500 125.651 C 86.875 124.632,84.672 123.325,82.001 121.201 C 77.296 117.460,73.677 117.204,70.099 120.360 C 67.386 122.752,67.422 122.458,67.200 144.400 L 67.000 164.200 65.813 166.543 C 64.602 168.933,62.218 171.379,60.152 172.351 C 59.519 172.649,58.665 173.067,58.255 173.278 C 57.845 173.490,56.126 173.663,54.436 173.663 C 48.148 173.663,43.284 169.767,41.622 163.400 C 40.419 158.791,41.199 72.811,42.456 71.420 C 42.645 71.211,42.800 70.721,42.800 70.332 C 42.800 69.943,43.188 68.944,43.663 68.112 C 44.137 67.280,44.722 66.234,44.963 65.788 C 51.292 54.028,71.483 51.199,81.164 60.716 C 89.719 69.126,100.020 64.300,96.952 53.320 C 95.341 47.553,95.473 39.703,97.239 36.305 C 97.438 35.923,97.600 35.331,97.600 34.989 C 97.600 33.111,101.139 27.737,104.812 24.039 C 110.501 18.309,115.518 16.036,125.071 14.858 C 125.330 14.826,126.950 14.995,128.671 15.233 M262.557 104.633 C 262.954 105.667,262.840 359.128,262.442 359.374 C 262.245 359.496,262.089 361.081,262.095 362.898 C 262.127 372.344,255.669 380.308,246.133 382.583 C 243.645 383.176,236.196 383.224,163.200 383.117 L 83.000 383.000 80.872 382.091 C 74.172 379.229,69.933 374.353,68.251 367.574 C 67.557 364.775,67.219 188.412,67.906 187.343 C 68.068 187.091,69.588 185.958,71.285 184.824 C 74.355 182.772,79.003 178.124,80.031 176.075 C 80.328 175.484,80.871 174.550,81.238 174.000 C 81.605 173.450,82.214 172.100,82.591 171.000 C 84.308 165.995,84.400 165.089,84.400 153.129 L 84.400 141.498 86.100 141.765 C 87.035 141.911,88.340 142.190,89.000 142.385 C 99.625 145.511,113.719 142.510,123.628 135.013 L 125.456 133.630 127.778 136.803 C 130.548 140.591,135.777 145.722,139.043 147.857 C 140.339 148.704,141.490 149.501,141.600 149.627 C 142.127 150.231,148.958 153.258,151.800 154.146 C 163.236 157.723,175.932 156.868,186.600 151.803 C 202.250 144.373,213.159 126.718,213.192 108.767 C 213.196 106.438,213.320 104.413,213.467 104.267 C 214.120 103.613,262.304 103.973,262.557 104.633 M333.000 149.598 C 341.752 151.834,348.515 157.299,351.628 164.653 C 353.677 169.495,353.833 169.910,354.382 172.000 C 354.641 172.990,355.005 174.340,355.189 175.000 C 356.962 181.363,357.200 189.464,357.200 243.600 C 357.200 297.736,356.962 305.837,355.189 312.200 C 354.084 316.162,353.740 317.235,352.880 319.400 C 350.632 325.060,348.508 328.350,345.154 331.365 C 337.819 337.960,334.466 338.501,302.000 338.325 L 279.000 338.200 279.000 322.800 L 279.000 307.400 293.000 307.166 C 308.854 306.900,310.205 306.670,315.946 303.260 C 318.783 301.575,323.108 297.320,324.250 295.092 C 324.614 294.381,325.022 293.710,325.156 293.600 C 325.852 293.031,328.279 286.700,328.824 284.028 C 330.185 277.366,330.384 272.193,330.392 243.268 C 330.397 226.276,330.231 212.740,329.991 210.468 C 329.388 204.771,328.293 199.497,327.530 198.620 C 327.349 198.411,327.200 198.004,327.200 197.716 C 327.200 194.427,320.634 185.985,315.877 183.156 C 309.892 179.597,309.242 179.485,293.200 179.228 L 279.000 179.000 278.895 164.402 C 278.837 156.373,278.885 149.556,279.001 149.253 C 279.295 148.486,329.914 148.809,333.000 149.598 M101.874 174.376 C 99.836 174.786,98.409 175.903,97.200 178.035 L 96.200 179.800 96.200 251.800 L 96.200 323.800 97.278 325.457 C 100.657 330.652,109.036 330.366,111.572 324.970 C 112.400 323.210,112.400 323.174,112.400 251.540 L 112.400 179.870 111.423 178.204 C 109.604 175.099,105.820 173.583,101.874 174.376 M141.843 174.276 C 139.926 174.588,137.723 176.325,136.828 178.230 C 135.531 180.989,135.518 322.352,136.815 325.030 C 139.502 330.581,148.450 330.549,151.372 324.979 C 152.330 323.151,152.928 184.599,151.996 180.221 C 151.038 175.720,147.108 173.418,141.843 174.276 M182.643 174.273 C 180.892 174.562,178.643 176.230,177.670 177.961 L 176.800 179.509 176.800 251.676 L 176.800 323.843 177.970 325.689 C 181.002 330.469,189.138 330.207,191.930 325.239 L 192.800 323.691 192.800 251.607 L 192.800 179.523 191.937 178.262 C 189.645 174.910,186.630 173.616,182.643 174.273 M222.263 174.277 C 220.267 174.505,217.438 177.232,216.821 179.523 C 216.521 180.638,216.423 202.597,216.496 252.459 L 216.600 323.800 217.569 325.431 C 220.699 330.698,229.213 330.391,231.864 324.917 L 232.793 323.000 232.796 251.563 L 232.800 180.126 231.884 178.394 C 230.070 174.964,227.160 173.719,222.263 174.277 M303.600 197.600 C 303.600 197.820,303.960 198.000,304.400 198.000 C 304.840 198.000,305.200 198.180,305.200 198.400 C 305.200 198.620,305.491 198.800,305.846 198.800 C 307.276 198.800,311.200 204.360,311.200 206.387 C 311.200 206.834,311.380 207.200,311.600 207.200 C 311.820 207.200,312.000 208.089,312.000 209.176 C 312.000 210.263,312.180 211.264,312.400 211.400 C 312.661 211.562,312.800 222.871,312.800 244.024 C 312.800 265.341,312.663 276.400,312.400 276.400 C 312.180 276.400,312.000 277.390,312.000 278.600 C 312.000 279.810,311.820 280.800,311.600 280.800 C 311.380 280.800,311.200 281.340,311.200 282.000 C 311.200 282.660,311.020 283.200,310.800 283.200 C 310.580 283.200,310.400 283.560,310.400 284.000 C 310.400 284.440,310.220 284.800,310.000 284.800 C 309.780 284.800,309.600 285.083,309.600 285.429 C 309.600 285.774,309.375 286.292,309.100 286.580 C 308.825 286.867,308.335 287.484,308.012 287.951 C 307.688 288.418,307.103 288.800,306.712 288.800 C 306.320 288.800,306.000 288.980,306.000 289.200 C 306.000 289.420,305.640 289.600,305.200 289.600 C 304.760 289.600,304.400 289.780,304.400 290.000 C 304.400 290.220,303.500 290.400,302.400 290.400 C 301.300 290.400,300.400 290.580,300.400 290.800 C 300.400 291.057,296.600 291.200,289.800 291.200 L 279.200 291.200 279.200 244.200 L 279.200 197.200 291.400 197.200 C 299.267 197.200,303.600 197.342,303.600 197.600 " stroke="none" fill="#4c242c" fill-rule="evenodd"></path><path id="path1" d="M214.240 108.100 C 213.811 114.575,213.530 117.005,213.168 117.380 C 212.965 117.589,212.800 118.343,212.800 119.056 C 212.800 119.769,212.620 120.464,212.400 120.600 C 212.180 120.736,212.000 121.366,212.000 122.000 C 212.000 122.634,211.820 123.264,211.600 123.400 C 211.380 123.536,211.200 123.999,211.200 124.429 C 211.200 124.859,211.034 125.523,210.832 125.905 C 210.630 126.287,209.719 128.201,208.808 130.157 C 205.390 137.499,199.827 144.285,193.868 148.379 C 192.731 149.161,191.709 149.919,191.598 150.065 C 190.477 151.536,179.499 155.743,174.900 156.464 C 164.688 158.064,145.107 154.964,143.667 151.519 C 143.593 151.343,143.188 151.200,142.767 151.200 C 142.345 151.200,142.000 151.020,142.000 150.800 C 142.000 150.580,141.764 150.400,141.475 150.400 C 141.187 150.400,140.564 150.040,140.092 149.600 C 139.620 149.160,139.091 148.799,138.917 148.799 C 137.999 148.794,131.059 142.280,128.691 139.200 C 127.761 137.990,126.865 136.940,126.700 136.867 C 126.535 136.793,126.400 136.555,126.400 136.338 C 126.400 134.922,125.148 134.708,123.679 135.873 C 122.060 137.157,118.095 139.540,116.200 140.369 C 115.540 140.657,114.687 141.052,114.305 141.247 C 113.923 141.441,113.248 141.600,112.805 141.600 C 112.362 141.600,112.000 141.780,112.000 142.000 C 112.000 142.220,111.471 142.400,110.824 142.400 C 110.177 142.400,109.536 142.580,109.400 142.800 C 109.264 143.020,108.569 143.200,107.856 143.200 C 107.143 143.200,106.372 143.388,106.142 143.618 C 105.288 144.472,87.600 143.652,87.600 142.758 C 87.600 142.561,87.150 142.400,86.600 142.400 L 85.600 142.400 85.600 152.569 C 85.600 165.385,85.215 167.628,81.892 174.187 C 81.227 175.500,80.439 176.818,80.141 177.116 C 79.844 177.414,79.600 177.821,79.600 178.022 C 79.600 178.772,73.503 184.449,70.998 186.031 L 68.396 187.674 68.526 276.937 C 68.597 326.032,68.801 366.803,68.979 367.539 C 70.076 372.079,74.092 377.429,78.170 379.780 C 83.041 382.588,77.617 382.394,151.030 382.397 L 217.061 382.400 217.886 381.500 C 223.774 375.082,224.800 370.022,224.800 347.417 L 224.800 330.000 223.412 330.000 C 222.160 330.000,220.945 329.497,218.475 327.954 C 217.403 327.285,216.211 324.798,215.622 322.000 C 215.097 319.511,215.239 182.510,215.769 180.000 C 216.144 178.225,217.954 175.520,219.113 175.005 C 219.601 174.788,220.000 174.473,220.000 174.305 C 220.000 174.137,220.349 174.000,220.776 174.000 C 221.203 174.000,221.664 173.820,221.800 173.600 C 221.936 173.380,222.667 173.200,223.424 173.200 L 224.800 173.200 224.800 139.243 C 224.800 108.647,224.737 105.262,224.167 105.043 C 223.819 104.909,221.493 104.800,218.997 104.800 L 214.459 104.800 214.240 108.100 M279.200 163.783 L 279.200 177.965 290.700 178.144 C 307.144 178.398,310.341 178.915,316.001 182.233 C 319.486 184.275,326.000 191.405,326.000 193.178 C 326.000 193.410,326.180 193.600,326.400 193.600 C 326.620 193.600,326.800 193.949,326.800 194.376 C 326.800 194.803,326.980 195.264,327.200 195.400 C 327.420 195.536,327.600 196.087,327.600 196.624 C 327.600 197.161,327.780 197.600,328.000 197.600 C 328.220 197.600,328.400 197.949,328.400 198.376 C 328.400 198.803,328.580 199.264,328.800 199.400 C 329.020 199.536,329.200 200.256,329.200 201.000 C 329.200 201.744,329.380 202.464,329.600 202.600 C 329.820 202.736,330.000 203.636,330.000 204.600 C 330.000 205.564,330.180 206.464,330.400 206.600 C 330.662 206.762,330.800 219.463,330.800 243.400 C 330.800 267.337,330.662 280.038,330.400 280.200 C 330.180 280.336,330.000 281.146,330.000 282.000 C 330.000 282.854,329.820 283.664,329.600 283.800 C 329.380 283.936,329.200 284.746,329.200 285.600 C 329.200 286.454,329.020 287.264,328.800 287.400 C 328.580 287.536,328.400 287.997,328.400 288.424 C 328.400 288.851,328.259 289.200,328.087 289.200 C 327.915 289.200,327.523 290.052,327.215 291.094 C 326.908 292.135,326.329 293.339,325.928 293.769 C 325.528 294.199,325.200 294.787,325.200 295.075 C 325.200 295.364,325.020 295.600,324.800 295.600 C 324.580 295.600,324.400 295.854,324.400 296.165 C 324.400 298.317,315.002 305.646,311.472 306.248 C 310.772 306.367,309.840 306.608,309.400 306.783 C 307.056 307.716,302.869 308.000,291.476 308.000 L 279.200 308.000 279.200 322.600 L 279.200 337.200 301.360 337.200 L 323.520 337.200 325.628 334.900 C 328.836 331.400,331.545 326.896,333.987 321.000 C 334.534 319.681,335.906 314.714,336.198 313.000 C 336.347 312.120,336.642 310.590,336.853 309.600 C 338.622 301.296,338.925 186.325,337.198 178.600 C 337.001 177.720,336.542 175.380,336.176 173.400 C 334.631 165.031,330.983 157.328,325.960 151.832 L 323.920 149.600 301.560 149.600 L 279.200 149.600 279.200 163.783 M106.600 173.600 C 106.736 173.820,107.208 174.000,107.650 174.000 C 108.802 174.000,112.628 178.030,113.020 179.656 C 113.512 181.701,113.691 321.269,113.202 321.758 C 112.981 321.979,112.800 322.844,112.800 323.680 C 112.800 324.516,112.620 325.200,112.400 325.200 C 112.180 325.200,112.000 325.425,112.000 325.700 C 111.999 326.522,110.315 328.140,108.462 329.100 C 103.987 331.418,97.058 329.033,96.172 324.869 C 96.047 324.281,95.777 323.387,95.572 322.881 C 95.071 321.645,95.071 181.555,95.572 180.319 C 95.777 179.813,96.045 178.926,96.168 178.347 C 96.410 177.210,98.443 174.800,99.160 174.800 C 99.402 174.800,99.600 174.620,99.600 174.400 C 99.600 174.180,99.949 174.000,100.376 174.000 C 100.803 174.000,101.264 173.820,101.400 173.600 C 101.536 173.380,102.706 173.200,104.000 173.200 C 105.294 173.200,106.464 173.380,106.600 173.600 M147.000 173.600 C 147.136 173.820,147.597 174.000,148.024 174.000 C 148.451 174.000,148.800 174.180,148.800 174.400 C 148.800 174.620,148.988 174.800,149.217 174.800 C 149.759 174.800,150.818 175.854,152.029 177.600 L 153.000 179.000 153.000 251.600 L 153.000 324.200 151.662 326.127 C 150.926 327.187,150.026 328.164,149.662 328.298 C 149.298 328.432,148.910 328.648,148.800 328.779 C 146.456 331.560,136.404 329.064,136.400 325.700 C 136.400 325.425,136.244 325.200,136.053 325.200 C 135.137 325.200,135.027 317.057,135.053 251.600 C 135.079 187.086,135.189 178.000,135.944 178.000 C 136.088 178.000,136.439 177.470,136.726 176.823 C 137.012 176.176,137.776 175.412,138.423 175.126 C 139.070 174.839,139.600 174.469,139.600 174.302 C 139.600 174.136,139.949 174.000,140.376 174.000 C 140.803 174.000,141.264 173.820,141.400 173.600 C 141.536 173.380,142.796 173.200,144.200 173.200 C 145.604 173.200,146.864 173.380,147.000 173.600 M187.400 173.600 C 187.536 173.820,187.997 174.000,188.424 174.000 C 188.851 174.000,189.200 174.141,189.200 174.314 C 189.200 174.486,189.740 174.946,190.400 175.336 C 191.060 175.726,191.600 176.265,191.600 176.534 C 191.600 176.803,191.960 177.283,192.400 177.600 C 192.863 177.933,193.200 178.635,193.200 179.265 C 193.200 179.863,193.380 180.464,193.600 180.600 C 194.154 180.942,194.154 321.458,193.600 321.800 C 193.380 321.936,193.200 322.757,193.200 323.624 C 193.200 324.491,193.020 325.200,192.800 325.200 C 192.580 325.200,192.400 325.425,192.400 325.700 C 192.399 326.363,190.629 328.400,190.053 328.400 C 189.804 328.400,189.600 328.580,189.600 328.800 C 189.600 329.020,189.251 329.200,188.824 329.200 C 188.397 329.200,187.936 329.380,187.800 329.600 C 187.212 330.551,180.000 329.737,180.000 328.720 C 180.000 328.544,179.812 328.400,179.582 328.400 C 178.940 328.400,177.200 326.514,177.200 325.818 C 177.200 325.478,177.020 325.200,176.800 325.200 C 176.580 325.200,176.400 324.581,176.400 323.824 C 176.400 323.067,176.220 322.336,176.000 322.200 C 175.446 321.858,175.446 181.342,176.000 181.000 C 176.220 180.864,176.400 180.133,176.400 179.376 C 176.400 178.619,176.580 178.000,176.800 178.000 C 177.020 178.000,177.200 177.775,177.200 177.500 C 177.201 176.740,178.853 175.062,180.200 174.451 C 180.860 174.152,181.670 173.759,182.000 173.577 C 182.858 173.105,187.105 173.123,187.400 173.600 " stroke="none" fill="#fbcc4c" fill-rule="evenodd"></path><path id="path2" d="M121.000 15.880 C 104.836 18.037,92.691 36.462,97.121 52.104 C 100.749 64.915,88.137 70.605,79.600 60.010 C 79.074 59.357,75.126 57.322,72.800 56.505 C 66.594 54.325,56.172 55.783,51.562 59.476 C 45.713 64.160,43.383 68.014,42.171 75.000 C 41.366 79.643,41.344 160.403,42.147 163.418 C 45.255 175.088,59.926 176.843,65.536 166.216 L 66.600 164.200 66.800 143.934 L 67.000 123.668 68.216 121.939 C 72.002 116.554,77.201 116.314,82.691 121.273 C 84.151 122.591,87.000 124.173,89.800 125.220 C 90.240 125.385,91.230 125.759,92.000 126.052 C 93.803 126.737,101.649 126.703,103.807 126.000 C 110.732 123.744,114.539 120.818,118.631 114.606 C 124.180 106.179,133.084 106.121,135.576 114.495 C 135.855 115.433,136.245 116.613,136.442 117.119 C 136.639 117.624,136.800 118.392,136.800 118.824 C 136.800 119.257,136.960 119.923,137.156 120.305 C 137.352 120.687,137.930 121.900,138.441 123.000 C 143.134 133.114,153.303 139.480,164.400 139.252 C 166.540 139.208,171.131 138.690,171.800 138.418 C 172.240 138.238,173.410 137.871,174.400 137.603 C 180.314 135.997,188.124 130.107,190.845 125.200 C 191.150 124.650,191.490 124.110,191.600 124.000 C 192.078 123.522,192.800 121.961,192.800 121.405 C 192.800 121.072,192.960 120.800,193.155 120.800 C 193.350 120.800,193.605 120.305,193.722 119.700 C 193.839 119.095,194.159 117.880,194.434 117.000 C 194.741 116.017,195.046 111.387,195.222 105.000 C 195.551 93.104,195.697 91.992,197.212 89.800 C 199.804 86.049,200.260 86.000,232.839 86.000 L 260.438 86.000 261.434 84.925 C 269.137 76.614,264.479 58.098,253.150 51.990 C 244.986 47.588,232.417 48.130,226.683 53.130 C 223.371 56.018,218.389 54.909,215.493 50.639 C 210.481 43.251,203.317 36.000,201.030 36.000 C 200.917 36.000,199.837 35.549,198.631 34.997 C 193.132 32.482,184.364 32.209,178.664 34.375 C 176.682 35.129,173.169 36.798,172.678 37.220 C 168.498 40.808,163.434 42.981,161.573 41.986 C 161.177 41.774,160.526 41.600,160.126 41.600 C 158.651 41.600,156.041 38.600,154.372 34.989 C 147.912 21.005,135.566 13.936,121.000 15.880 " stroke="none" fill="#fafaf4" fill-rule="evenodd"></path><path id="path3" d="M240.100 48.687 C 240.705 48.778,241.695 48.778,242.300 48.687 C 242.905 48.595,242.410 48.520,241.200 48.520 C 239.990 48.520,239.495 48.595,240.100 48.687 M236.000 49.200 C 235.176 49.464,235.141 49.526,235.800 49.554 C 236.240 49.573,236.870 49.413,237.200 49.200 C 237.901 48.747,237.414 48.747,236.000 49.200 M264.493 68.000 C 264.493 68.770,264.575 69.085,264.676 68.700 C 264.776 68.315,264.776 67.685,264.676 67.300 C 264.575 66.915,264.493 67.230,264.493 68.000 M265.314 75.000 C 265.317 76.100,265.395 76.503,265.487 75.895 C 265.579 75.286,265.577 74.386,265.482 73.895 C 265.387 73.403,265.311 73.900,265.314 75.000 M212.927 86.300 C 217.727 86.364,225.467 86.363,230.127 86.299 C 234.787 86.236,230.860 86.183,221.400 86.183 C 211.940 86.183,208.127 86.236,212.927 86.300 M195.369 103.000 C 195.370 107.620,195.428 109.455,195.499 107.078 C 195.570 104.701,195.569 100.921,195.498 98.678 C 195.427 96.435,195.369 98.380,195.369 103.000 M214.244 104.837 C 213.868 106.016,213.671 112.133,214.027 111.570 C 214.225 111.257,214.391 109.605,214.394 107.900 L 214.400 104.800 218.967 104.800 C 221.479 104.800,223.819 104.909,224.167 105.043 C 224.737 105.262,224.800 108.643,224.800 139.191 L 224.800 173.096 226.700 173.620 C 229.332 174.346,230.798 175.395,232.200 177.553 L 233.400 179.400 233.400 251.666 L 233.400 323.933 232.500 325.150 C 232.005 325.820,231.600 326.531,231.600 326.731 C 231.600 327.333,228.726 329.027,226.700 329.619 L 224.800 330.175 224.800 347.504 C 224.800 366.259,224.625 368.295,222.555 373.572 C 221.526 376.195,218.627 380.999,217.529 381.899 C 217.050 382.292,202.890 382.419,150.760 382.500 L 84.600 382.602 163.675 382.701 C 250.676 382.810,245.132 382.957,250.669 380.396 C 253.310 379.175,257.741 375.147,258.804 373.000 C 259.131 372.340,259.497 371.710,259.616 371.600 C 259.736 371.490,260.070 370.590,260.358 369.600 C 260.647 368.610,261.045 367.387,261.242 366.881 C 261.439 366.376,261.600 364.451,261.600 362.605 C 261.600 360.758,261.780 359.136,262.000 359.000 C 262.265 358.836,262.400 315.996,262.400 231.776 L 262.400 104.800 245.900 104.799 C 236.825 104.798,226.030 104.680,221.912 104.536 C 215.661 104.318,214.393 104.367,214.244 104.837 M213.260 115.467 C 213.227 115.944,213.084 116.664,212.941 117.067 C 212.742 117.631,212.795 117.696,213.172 117.349 C 213.442 117.101,213.585 116.381,213.491 115.749 C 213.370 114.939,213.302 114.856,213.260 115.467 M194.600 116.000 C 194.450 116.473,194.417 116.950,194.527 117.060 C 194.637 117.170,194.850 116.873,195.000 116.400 C 195.150 115.927,195.183 115.450,195.073 115.340 C 194.963 115.230,194.750 115.527,194.600 116.000 M207.014 133.035 C 206.641 133.604,206.427 134.161,206.539 134.272 C 206.650 134.383,207.029 133.918,207.381 133.237 C 208.159 131.733,207.944 131.615,207.014 133.035 M181.497 134.366 C 179.853 135.419,179.625 135.791,181.075 135.054 C 181.776 134.697,182.461 134.224,182.598 134.003 C 182.919 133.484,182.823 133.515,181.497 134.366 M123.200 135.838 C 122.210 136.624,121.310 137.372,121.200 137.498 C 120.796 137.963,122.244 137.017,123.759 135.825 C 124.808 135.001,125.375 134.763,125.492 135.100 C 125.588 135.375,125.854 135.600,126.082 135.600 C 126.333 135.600,126.301 135.362,126.000 135.000 C 125.324 134.186,125.253 134.207,123.200 135.838 M118.600 138.800 C 117.500 139.452,116.748 139.989,116.929 139.993 C 117.320 140.001,120.800 137.996,120.800 137.762 C 120.800 137.506,120.711 137.548,118.600 138.800 M129.248 140.000 C 129.955 140.880,130.605 141.600,130.693 141.600 C 131.001 141.600,128.596 138.417,128.281 138.409 C 128.106 138.404,128.541 139.120,129.248 140.000 M202.200 140.056 C 201.540 140.957,199.470 143.143,197.600 144.915 C 195.730 146.688,194.581 147.882,195.046 147.569 C 197.398 145.987,204.620 138.386,203.749 138.409 C 203.557 138.415,202.860 139.156,202.200 140.056 M159.505 139.083 C 160.002 139.179,160.722 139.175,161.105 139.075 C 161.487 138.975,161.080 138.896,160.200 138.901 C 159.320 138.905,159.007 138.987,159.505 139.083 M166.000 139.202 C 165.400 139.395,166.040 139.437,167.600 139.306 C 169.030 139.186,170.275 139.023,170.367 138.944 C 170.689 138.665,166.988 138.884,166.000 139.202 M85.406 142.500 C 85.163 143.221,84.961 165.173,85.200 164.934 C 85.406 164.729,85.889 141.999,85.687 142.000 C 85.626 142.000,85.499 142.225,85.406 142.500 M132.783 143.700 C 134.441 145.466,134.800 145.784,134.800 145.483 C 134.800 145.419,133.945 144.564,132.900 143.583 L 131.000 141.800 132.783 143.700 M90.800 143.579 C 91.130 143.804,91.925 143.991,92.567 143.994 C 94.104 144.002,93.784 143.770,91.800 143.438 C 90.654 143.246,90.370 143.286,90.800 143.579 M104.600 143.600 L 103.400 143.905 104.676 143.953 C 105.378 143.979,106.064 143.820,106.200 143.600 C 106.474 143.157,106.340 143.157,104.600 143.600 M137.200 147.495 C 137.200 147.884,138.814 148.919,139.051 148.682 C 139.147 148.586,138.769 148.210,138.212 147.845 C 137.656 147.480,137.200 147.322,137.200 147.495 M140.224 149.787 C 140.651 150.110,141.180 150.375,141.400 150.375 C 141.620 150.375,141.451 150.110,141.024 149.787 C 140.596 149.464,140.067 149.200,139.847 149.200 C 139.627 149.200,139.796 149.464,140.224 149.787 M325.960 151.832 C 330.983 157.328,334.631 165.031,336.176 173.400 C 336.542 175.380,337.001 177.720,337.198 178.600 C 338.024 182.297,338.200 193.710,338.198 243.600 C 338.196 295.252,338.014 304.148,336.853 309.600 C 336.642 310.590,336.347 312.120,336.198 313.000 C 335.906 314.714,334.534 319.681,333.987 321.000 C 331.545 326.894,328.836 331.400,325.631 334.897 L 323.526 337.193 301.463 337.314 C 286.050 337.398,287.357 337.416,305.800 337.374 C 334.148 337.309,333.378 337.360,338.279 335.216 C 341.302 333.893,344.855 331.292,346.600 329.126 C 347.480 328.033,348.412 326.909,348.671 326.627 C 349.270 325.976,352.000 320.636,352.000 320.115 C 352.000 319.899,352.294 319.134,352.653 318.415 C 353.483 316.750,354.095 314.416,355.226 308.600 C 356.501 302.038,356.875 185.375,355.637 180.200 C 355.374 179.100,354.981 177.300,354.763 176.200 C 351.349 158.967,341.456 149.603,326.660 149.600 L 323.920 149.600 325.960 151.832 M188.903 151.171 C 187.749 151.807,185.543 152.823,184.000 153.428 C 182.457 154.033,181.264 154.598,181.349 154.682 C 181.678 155.012,190.380 151.144,191.567 150.141 C 192.194 149.611,190.650 150.207,188.903 151.171 M143.600 151.528 C 143.600 151.824,144.380 152.200,148.292 153.788 C 151.061 154.912,151.358 154.980,151.000 154.400 C 150.864 154.180,150.482 154.000,150.150 154.000 C 149.819 154.000,148.209 153.382,146.574 152.626 C 144.938 151.870,143.600 151.376,143.600 151.528 M153.000 155.340 C 154.876 156.008,157.454 156.521,157.087 156.153 C 156.848 155.915,155.435 155.553,152.600 155.003 C 151.758 154.840,151.877 154.940,153.000 155.340 M178.800 155.200 C 178.470 155.413,177.750 155.593,177.200 155.600 C 176.650 155.607,175.930 155.796,175.600 156.021 C 175.171 156.313,175.456 156.352,176.600 156.155 C 178.732 155.790,181.256 154.863,180.200 154.834 C 179.760 154.822,179.130 154.987,178.800 155.200 M160.600 156.800 C 161.040 156.989,161.940 157.135,162.600 157.125 L 163.800 157.105 162.600 156.800 C 161.940 156.632,161.040 156.486,160.600 156.475 L 159.800 156.456 160.600 156.800 M169.600 156.800 L 168.200 157.095 169.800 157.119 C 170.680 157.133,171.760 156.989,172.200 156.800 C 173.242 156.352,171.726 156.352,169.600 156.800 M83.948 168.220 C 83.251 171.047,83.525 171.272,84.373 168.566 C 84.654 167.668,84.820 166.627,84.742 166.254 C 84.664 165.881,84.307 166.765,83.948 168.220 M81.271 174.759 C 80.792 175.611,80.402 176.464,80.405 176.654 C 80.407 176.845,80.862 176.209,81.414 175.243 C 81.967 174.276,82.357 173.423,82.281 173.347 C 82.204 173.271,81.750 173.906,81.271 174.759 M101.400 173.600 C 101.116 174.060,101.764 174.060,103.200 173.600 C 104.155 173.294,104.143 173.278,102.924 173.240 C 102.222 173.218,101.536 173.380,101.400 173.600 M105.400 173.600 C 106.501 174.073,106.892 174.073,106.600 173.600 C 106.464 173.380,105.958 173.213,105.476 173.228 C 104.631 173.255,104.629 173.269,105.400 173.600 M141.390 173.616 C 141.221 173.889,141.523 173.938,142.266 173.760 C 143.799 173.392,143.944 173.200,142.690 173.200 C 142.117 173.200,141.532 173.387,141.390 173.616 M145.400 173.600 C 146.511 174.078,147.295 174.078,147.000 173.600 C 146.864 173.380,146.268 173.213,145.676 173.228 C 144.715 173.253,144.686 173.293,145.400 173.600 M182.190 173.616 C 182.021 173.889,182.323 173.938,183.066 173.760 C 184.599 173.392,184.744 173.200,183.490 173.200 C 182.917 173.200,182.332 173.387,182.190 173.616 M185.800 173.600 C 186.911 174.078,187.695 174.078,187.400 173.600 C 187.264 173.380,186.668 173.213,186.076 173.228 C 185.115 173.253,185.086 173.293,185.800 173.600 M221.800 173.600 C 221.505 174.078,222.289 174.078,223.400 173.600 C 224.114 173.293,224.085 173.253,223.124 173.228 C 222.532 173.213,221.936 173.380,221.800 173.600 M137.455 175.855 C 136.875 176.435,136.400 177.101,136.400 177.335 C 136.400 177.596,136.518 177.613,136.706 177.380 C 136.874 177.171,137.446 176.505,137.976 175.900 C 139.204 174.498,138.842 174.467,137.455 175.855 M218.127 175.700 C 216.993 176.957,216.174 178.677,215.649 180.906 C 215.007 183.633,215.011 319.597,215.654 322.294 C 216.293 324.976,217.487 327.339,218.520 327.969 L 219.400 328.505 218.550 327.553 C 215.501 324.136,215.651 328.071,215.651 251.600 C 215.651 175.226,215.509 179.006,218.520 175.700 C 218.971 175.205,219.249 174.800,219.139 174.800 C 219.029 174.800,218.574 175.205,218.127 175.700 M150.642 176.100 C 150.801 176.375,151.307 177.140,151.766 177.800 L 152.600 179.000 152.600 251.600 L 152.600 324.200 151.305 326.065 C 150.592 327.091,149.823 328.022,149.595 328.135 C 149.367 328.248,149.407 328.294,149.686 328.238 C 149.964 328.182,150.823 327.256,151.596 326.181 L 153.000 324.226 153.000 251.613 L 153.000 179.000 151.847 177.300 C 150.793 175.746,149.954 174.911,150.642 176.100 M96.473 177.400 C 96.222 177.950,96.083 178.400,96.163 178.400 C 96.243 178.400,96.603 177.950,96.963 177.400 C 97.324 176.850,97.463 176.400,97.273 176.400 C 97.084 176.400,96.723 176.850,96.473 177.400 M78.683 178.600 C 77.603 179.953,77.527 180.530,78.565 179.492 C 79.079 178.979,80.125 177.200,79.914 177.200 C 79.851 177.200,79.297 177.830,78.683 178.600 M111.600 177.447 C 111.600 177.667,111.864 178.196,112.187 178.624 C 112.510 179.051,112.775 179.220,112.775 179.000 C 112.775 178.780,112.510 178.251,112.187 177.824 C 111.864 177.396,111.600 177.227,111.600 177.447 M280.600 178.261 C 284.089 178.524,302.731 178.583,302.087 178.328 C 301.709 178.179,296.360 178.075,290.200 178.098 C 284.040 178.121,279.720 178.194,280.600 178.261 M310.095 180.026 C 314.622 181.548,317.113 183.070,320.796 186.560 C 322.443 188.122,323.073 188.598,322.196 187.619 C 319.652 184.779,318.355 183.663,315.889 182.192 C 313.711 180.892,308.166 178.770,307.092 178.825 C 306.821 178.839,308.173 179.380,310.095 180.026 M95.443 180.633 C 95.092 181.546,95.155 322.110,95.506 322.662 C 95.668 322.916,95.800 290.921,95.800 251.562 C 95.800 212.203,95.774 180.000,95.743 180.000 C 95.711 180.000,95.576 180.285,95.443 180.633 M113.000 251.200 C 113.000 290.098,113.135 321.840,113.300 321.738 C 113.688 321.498,113.682 181.548,113.294 180.938 C 113.132 180.684,113.000 212.302,113.000 251.200 M193.400 251.200 C 193.400 290.098,193.535 321.840,193.700 321.738 C 193.865 321.636,194.000 289.894,194.000 251.200 C 194.000 212.506,193.865 180.764,193.700 180.662 C 193.535 180.560,193.400 212.302,193.400 251.200 M135.043 181.433 C 134.707 182.308,134.791 321.236,135.128 322.085 C 135.278 322.462,135.400 290.827,135.400 251.785 C 135.400 212.743,135.374 180.800,135.343 180.800 C 135.311 180.800,135.176 181.085,135.043 181.433 M175.867 181.067 C 175.496 181.437,175.529 321.909,175.900 322.138 C 176.065 322.240,176.200 290.481,176.200 251.562 C 176.200 212.643,176.185 180.800,176.167 180.800 C 176.148 180.800,176.013 180.920,175.867 181.067 M72.800 184.483 C 72.030 185.146,71.760 185.491,72.200 185.251 C 73.409 184.590,74.563 183.629,74.371 183.443 C 74.277 183.352,73.570 183.820,72.800 184.483 M69.493 186.614 L 68.000 187.629 68.099 276.714 L 68.198 365.800 68.300 276.732 L 68.402 187.664 69.801 186.799 C 70.570 186.324,71.200 185.859,71.200 185.767 C 71.200 185.484,71.036 185.566,69.493 186.614 M324.986 191.900 C 325.335 192.615,325.706 193.200,325.810 193.200 C 326.208 193.200,325.952 192.563,325.167 191.600 L 324.352 190.600 324.986 191.900 M329.228 202.876 C 329.296 204.144,329.942 205.054,329.972 203.924 C 329.987 203.332,329.820 202.736,329.600 202.600 C 329.380 202.464,329.213 202.588,329.228 202.876 M330.292 208.513 C 330.538 211.507,330.732 211.755,330.768 209.124 C 330.786 207.872,330.647 206.753,330.460 206.637 C 330.273 206.522,330.197 207.366,330.292 208.513 M330.470 276.800 C 330.426 277.790,330.277 279.050,330.140 279.600 C 329.951 280.361,330.005 280.495,330.367 280.158 C 330.667 279.880,330.789 278.845,330.697 277.358 C 330.570 275.302,330.541 275.230,330.470 276.800 M329.654 282.067 C 329.625 282.434,329.484 283.064,329.341 283.467 C 329.141 284.033,329.195 284.096,329.575 283.746 C 329.846 283.497,329.987 282.867,329.888 282.346 C 329.790 281.826,329.684 281.700,329.654 282.067 M323.445 296.988 C 323.080 297.544,322.922 298.000,323.095 298.000 C 323.484 298.000,324.519 296.386,324.282 296.149 C 324.186 296.053,323.810 296.431,323.445 296.988 M320.783 300.224 C 319.802 301.227,318.055 302.590,316.900 303.253 C 314.254 304.772,314.129 305.215,316.749 303.789 C 318.381 302.901,323.409 298.400,322.770 298.400 C 322.658 298.400,321.764 299.221,320.783 300.224 M312.478 305.495 C 311.531 305.822,310.844 306.177,310.951 306.285 C 311.220 306.554,313.936 305.628,314.218 305.171 C 314.344 304.967,314.392 304.823,314.324 304.850 C 314.256 304.878,313.425 305.168,312.478 305.495 M303.400 307.600 L 302.200 307.905 303.400 307.913 C 304.060 307.917,305.050 307.776,305.600 307.600 L 306.600 307.280 305.600 307.287 C 305.050 307.291,304.060 307.432,303.400 307.600 M96.589 325.979 C 97.237 327.233,99.868 329.466,100.248 329.085 C 100.373 328.961,99.935 328.580,99.276 328.239 C 98.617 327.898,97.685 326.985,97.206 326.210 C 96.148 324.498,95.746 324.348,96.589 325.979 M110.683 327.000 C 109.367 328.649,109.676 328.900,111.053 327.300 C 111.867 326.353,112.243 325.600,111.900 325.600 C 111.845 325.600,111.297 326.230,110.683 327.000 M136.400 325.815 C 136.401 326.296,138.346 328.589,138.563 328.365 C 138.650 328.274,138.200 327.577,137.561 326.815 C 136.922 326.053,136.400 325.603,136.400 325.815 M101.200 329.600 C 101.530 329.813,102.250 329.973,102.800 329.954 L 103.800 329.920 102.800 329.600 C 101.258 329.106,100.436 329.106,101.200 329.600 M105.600 329.600 C 104.645 329.906,104.657 329.922,105.876 329.960 C 106.578 329.982,107.264 329.820,107.400 329.600 C 107.684 329.140,107.036 329.140,105.600 329.600 M141.004 329.606 C 141.138 329.823,141.807 330.000,142.490 330.000 C 144.001 330.000,143.849 329.800,142.080 329.463 C 141.255 329.306,140.852 329.360,141.004 329.606 M145.600 329.600 L 144.600 329.920 145.600 329.954 C 146.150 329.973,146.870 329.813,147.200 329.600 C 147.964 329.106,147.142 329.106,145.600 329.600 M181.600 329.579 C 181.930 329.804,182.725 329.991,183.367 329.994 C 184.904 330.002,184.584 329.770,182.600 329.438 C 181.454 329.246,181.170 329.286,181.600 329.579 M186.200 329.600 L 185.000 329.905 186.276 329.953 C 186.978 329.979,187.664 329.820,187.800 329.600 C 188.074 329.157,187.940 329.157,186.200 329.600 M221.400 329.600 C 221.536 329.820,222.222 329.982,222.924 329.960 C 224.143 329.922,224.155 329.906,223.200 329.600 C 221.764 329.140,221.116 329.140,221.400 329.600 M68.669 367.400 C 68.967 369.327,71.243 374.021,72.266 374.816 C 72.963 375.357,72.966 375.346,72.339 374.593 C 71.354 373.413,69.201 368.781,69.194 367.829 C 69.191 367.373,69.016 366.730,68.805 366.400 C 68.545 365.992,68.501 366.311,68.669 367.400 M72.800 375.770 C 72.800 376.159,75.738 378.795,75.944 378.590 C 76.027 378.506,75.841 378.205,75.530 377.919 C 73.440 376.002,72.800 375.498,72.800 375.770 M76.400 378.924 C 76.400 379.263,79.666 381.245,80.026 381.124 C 80.230 381.056,79.498 380.495,78.399 379.877 C 77.299 379.259,76.400 378.830,76.400 378.924 M81.200 381.549 C 81.530 381.746,82.430 382.020,83.200 382.156 C 84.144 382.323,84.340 382.292,83.800 382.061 C 82.563 381.532,80.490 381.123,81.200 381.549 " stroke="none" fill="#ebb34b" fill-rule="evenodd"></path><path id="path4" d="M123.400 15.190 C 122.565 15.409,123.406 15.520,126.167 15.553 C 128.348 15.579,130.058 15.532,129.967 15.449 C 129.581 15.100,124.503 14.899,123.400 15.190 M118.400 16.021 C 117.970 16.314,118.254 16.354,119.400 16.162 C 121.384 15.830,121.704 15.598,120.167 15.606 C 119.525 15.609,118.730 15.796,118.400 16.021 M131.400 16.000 C 131.840 16.189,132.560 16.344,133.000 16.344 L 133.800 16.344 133.000 16.000 C 132.560 15.811,131.840 15.656,131.400 15.656 L 130.600 15.656 131.400 16.000 M115.800 16.800 L 115.000 17.144 115.800 17.166 C 116.240 17.178,116.870 17.013,117.200 16.800 C 117.995 16.286,116.996 16.286,115.800 16.800 M136.778 17.602 C 138.416 18.248,139.836 18.697,139.934 18.600 C 140.031 18.502,139.681 18.259,139.155 18.059 C 138.630 17.859,137.503 17.404,136.651 17.048 C 135.799 16.691,134.809 16.406,134.451 16.414 C 134.093 16.421,135.140 16.956,136.778 17.602 M113.065 17.847 C 112.440 18.186,112.006 18.539,112.100 18.633 C 112.287 18.820,114.800 17.646,114.800 17.371 C 114.800 17.062,114.218 17.222,113.065 17.847 M109.400 19.874 C 104.967 22.720,97.514 32.351,97.630 35.083 C 97.650 35.535,97.834 35.357,98.130 34.600 C 100.015 29.784,107.391 20.428,109.332 20.391 C 109.590 20.386,110.250 20.030,110.800 19.600 C 112.236 18.477,111.287 18.663,109.400 19.874 M140.400 18.929 C 140.400 19.016,141.435 19.766,142.700 20.597 C 143.965 21.427,146.063 23.165,147.362 24.458 C 148.660 25.752,149.783 26.751,149.855 26.678 C 150.097 26.436,145.478 21.954,143.825 20.827 C 141.990 19.575,140.400 18.694,140.400 18.929 M150.833 28.447 C 151.321 29.132,152.230 30.617,152.853 31.747 C 153.476 32.876,153.989 33.577,153.993 33.305 C 154.003 32.618,150.719 27.200,150.292 27.200 C 150.102 27.200,150.345 27.761,150.833 28.447 M186.711 32.693 C 187.651 32.778,189.091 32.777,189.911 32.691 C 190.730 32.605,189.960 32.536,188.200 32.537 C 186.440 32.539,185.770 32.609,186.711 32.693 M181.400 33.200 C 180.306 33.670,182.133 33.670,183.600 33.200 C 184.575 32.888,184.570 32.879,183.400 32.868 C 182.740 32.862,181.840 33.011,181.400 33.200 M192.400 33.200 C 192.950 33.376,193.940 33.520,194.600 33.520 C 195.767 33.520,195.772 33.511,194.800 33.200 C 194.250 33.024,193.260 32.880,192.600 32.880 C 191.433 32.880,191.428 32.889,192.400 33.200 M177.653 34.253 C 176.913 34.576,176.392 34.925,176.495 35.028 C 176.599 35.132,177.475 34.866,178.442 34.437 C 179.409 34.008,179.930 33.658,179.600 33.661 C 179.270 33.663,178.394 33.930,177.653 34.253 M197.558 34.437 C 198.525 34.866,199.400 35.134,199.502 35.032 C 199.724 34.810,196.894 33.588,196.251 33.628 C 196.003 33.644,196.591 34.008,197.558 34.437 M154.000 34.262 C 154.000 34.405,154.622 35.635,155.382 36.995 C 158.644 42.828,163.907 43.615,169.851 39.159 C 171.583 37.861,173.720 36.434,174.600 35.989 C 175.541 35.514,175.788 35.281,175.200 35.426 C 174.155 35.682,172.065 37.021,168.471 39.734 C 163.699 43.338,158.223 41.817,155.384 36.100 C 154.422 34.162,154.000 33.602,154.000 34.262 M201.044 35.889 C 206.823 39.190,209.027 41.435,215.736 50.851 C 217.754 53.683,221.670 55.497,223.485 54.441 C 224.045 54.114,223.734 54.022,222.047 54.012 C 219.071 53.995,217.859 53.122,214.791 48.785 C 213.366 46.771,211.365 44.195,210.344 43.061 C 209.323 41.928,208.153 40.612,207.744 40.137 C 206.717 38.946,202.018 35.772,200.800 35.446 C 199.952 35.219,199.989 35.286,201.044 35.889 M97.067 36.267 C 96.920 36.413,96.811 36.908,96.825 37.367 C 96.849 38.133,96.882 38.123,97.234 37.242 C 97.626 36.263,97.544 35.789,97.067 36.267 M96.249 39.015 C 96.112 39.373,96.022 40.416,96.050 41.333 C 96.098 42.931,96.113 42.910,96.418 40.802 C 96.747 38.534,96.685 37.881,96.249 39.015 M95.693 45.600 C 95.693 46.370,95.775 46.685,95.876 46.300 C 95.976 45.915,95.976 45.285,95.876 44.900 C 95.775 44.515,95.693 44.830,95.693 45.600 M96.006 49.233 C 96.009 49.985,96.192 50.870,96.412 51.200 C 96.691 51.619,96.733 51.258,96.550 50.000 C 96.225 47.759,95.998 47.440,96.006 49.233 M234.930 48.955 C 234.012 49.203,233.112 49.562,232.930 49.753 C 232.745 49.947,232.989 49.980,233.484 49.828 C 233.970 49.679,235.500 49.310,236.884 49.010 C 238.694 48.617,239.007 48.469,238.000 48.484 C 237.230 48.495,235.849 48.707,234.930 48.955 M244.200 48.679 C 244.860 48.767,246.364 49.110,247.543 49.443 C 248.722 49.775,249.782 49.951,249.900 49.833 C 250.018 49.715,249.864 49.550,249.557 49.466 C 249.251 49.382,248.357 49.108,247.572 48.856 C 246.786 48.605,245.436 48.427,244.572 48.460 C 243.245 48.511,243.187 48.545,244.200 48.679 M229.046 51.319 C 227.751 52.024,226.131 52.906,225.446 53.281 C 224.716 53.680,224.467 53.970,224.846 53.981 C 225.201 53.991,225.957 53.634,226.525 53.187 C 227.093 52.741,228.557 51.917,229.779 51.358 C 231.815 50.426,232.469 49.970,231.700 50.019 C 231.535 50.030,230.341 50.615,229.046 51.319 M252.380 51.216 C 259.579 55.184,264.651 62.503,264.843 69.200 C 264.871 70.190,265.046 71.540,265.231 72.200 C 265.453 72.993,265.499 72.381,265.366 70.400 C 264.952 64.243,262.899 59.677,258.612 55.383 C 256.119 52.885,251.815 49.987,250.629 50.007 C 250.393 50.011,251.181 50.555,252.380 51.216 M96.856 52.600 C 96.856 53.040,97.011 53.760,97.200 54.200 L 97.544 55.000 97.544 54.200 C 97.544 53.760,97.389 53.040,97.200 52.600 L 96.856 51.800 96.856 52.600 M59.200 55.525 C 53.114 57.244,47.309 61.428,44.963 65.788 C 44.722 66.234,44.137 67.280,43.663 68.112 C 43.188 68.944,42.800 69.943,42.800 70.332 C 42.800 70.721,42.645 71.211,42.456 71.420 C 41.199 72.811,40.419 158.791,41.622 163.400 C 42.512 166.811,46.234 172.007,47.779 171.997 C 48.011 171.996,47.359 171.274,46.332 170.394 C 44.223 168.586,42.746 166.195,42.063 163.486 C 41.445 161.029,41.409 79.026,42.025 75.200 C 44.086 62.394,54.310 54.498,67.600 55.448 C 71.132 55.701,72.677 56.152,76.511 58.053 C 77.563 58.574,79.813 60.143,81.511 61.541 C 84.727 64.186,87.234 65.604,88.600 65.552 C 89.040 65.535,88.613 65.274,87.651 64.972 C 86.109 64.487,82.776 62.301,81.164 60.716 C 76.390 56.023,66.072 53.585,59.200 55.525 M97.693 56.800 C 97.693 57.570,97.775 57.885,97.876 57.500 C 97.976 57.115,97.976 56.485,97.876 56.100 C 97.775 55.715,97.693 56.030,97.693 56.800 M96.706 60.258 C 96.332 61.084,96.097 61.830,96.183 61.917 C 96.428 62.161,97.665 59.596,97.517 59.152 C 97.445 58.935,97.080 59.433,96.706 60.258 M94.283 63.591 C 93.593 64.289,92.448 64.869,91.283 65.112 C 89.602 65.463,89.541 65.510,90.720 65.553 C 92.280 65.609,93.830 64.872,95.170 63.438 C 96.481 62.034,95.688 62.171,94.283 63.591 M265.660 74.680 C 265.601 75.937,264.777 79.420,264.164 81.000 C 263.994 81.440,263.232 82.745,262.471 83.900 L 261.087 86.000 252.043 86.056 C 247.070 86.087,233.910 86.232,222.800 86.379 L 202.600 86.644 231.719 86.722 L 260.838 86.800 261.834 85.725 C 263.997 83.391,266.276 77.094,265.889 74.521 C 265.725 73.436,265.718 73.441,265.660 74.680 M199.607 87.652 C 196.067 89.810,195.916 90.421,195.544 104.000 C 195.239 115.128,194.919 118.014,193.874 119.059 C 193.723 119.210,193.600 119.652,193.600 120.042 C 193.600 120.776,191.697 124.503,190.250 126.600 C 187.851 130.080,183.310 133.925,179.000 136.129 C 177.460 136.916,176.407 137.570,176.659 137.580 C 179.301 137.693,188.889 129.996,191.274 125.848 C 195.393 118.683,195.652 117.467,195.974 103.783 L 196.248 92.166 197.507 90.335 C 198.282 89.209,199.427 88.184,200.483 87.672 C 201.427 87.214,201.930 86.832,201.600 86.821 C 201.270 86.811,200.373 87.185,199.607 87.652 M213.467 104.267 C 213.320 104.413,213.196 106.438,213.192 108.767 C 213.182 113.995,212.179 119.712,210.413 124.600 C 203.600 143.455,187.843 155.338,168.400 156.282 C 162.475 156.570,158.311 156.039,151.637 154.147 C 151.012 153.970,150.765 154.020,150.933 154.291 C 151.074 154.520,151.687 154.807,152.295 154.929 C 152.903 155.051,154.210 155.354,155.200 155.603 C 161.449 157.174,170.215 157.350,175.600 156.014 C 187.877 152.966,195.006 148.610,202.807 139.390 C 205.642 136.040,208.936 130.192,210.390 125.927 C 210.865 124.537,211.414 123.040,211.611 122.600 C 212.357 120.932,213.604 113.620,213.896 109.200 L 214.200 104.600 219.300 104.607 C 222.105 104.611,232.950 104.656,243.400 104.707 L 262.400 104.800 262.400 231.776 C 262.400 315.996,262.265 358.836,262.000 359.000 C 261.780 359.136,261.600 360.758,261.600 362.605 C 261.600 364.451,261.439 366.376,261.242 366.881 C 261.045 367.387,260.647 368.610,260.358 369.600 C 260.070 370.590,259.736 371.490,259.616 371.600 C 259.497 371.710,259.131 372.340,258.804 373.000 C 256.871 376.903,251.023 380.906,245.390 382.181 C 240.620 383.262,84.712 382.922,81.600 381.824 C 78.508 380.734,72.800 376.763,72.800 375.702 C 72.800 375.480,72.515 375.062,72.167 374.773 C 71.819 374.484,70.928 373.067,70.187 371.624 C 69.446 370.181,68.830 369.232,68.820 369.516 C 68.690 372.906,75.151 379.647,80.872 382.091 L 83.000 383.000 163.200 383.117 C 236.196 383.224,243.645 383.176,246.133 382.583 C 255.669 380.308,262.127 372.344,262.095 362.898 C 262.089 361.081,262.245 359.496,262.442 359.374 C 262.840 359.128,262.954 105.667,262.557 104.633 C 262.304 103.973,214.120 103.613,213.467 104.267 M124.600 108.914 C 121.519 110.710,120.638 111.577,118.434 114.979 C 110.949 126.533,98.686 129.860,86.260 123.706 C 85.192 123.178,84.417 122.904,84.537 123.098 C 84.749 123.441,87.779 124.998,89.400 125.597 C 89.840 125.760,90.700 126.130,91.311 126.420 C 92.859 127.154,101.634 127.174,104.000 126.448 C 110.556 124.437,114.982 120.990,119.214 114.600 C 120.379 112.840,121.528 111.264,121.766 111.099 C 127.705 106.969,132.898 108.435,135.192 114.890 C 135.604 116.050,135.955 116.707,135.971 116.349 C 136.188 111.498,128.636 106.560,124.600 108.914 M136.206 118.400 C 136.482 119.916,139.575 126.800,139.980 126.800 C 140.116 126.800,140.556 127.356,140.958 128.036 C 142.644 130.890,148.237 135.609,151.719 137.116 C 153.664 137.958,153.479 137.604,151.412 136.529 C 144.773 133.077,136.835 123.498,136.794 118.890 C 136.791 118.510,136.600 117.930,136.370 117.600 C 136.060 117.156,136.018 117.365,136.206 118.400 M71.126 119.161 C 70.119 119.799,69.173 120.519,69.024 120.761 C 68.583 121.475,69.121 121.265,70.207 120.300 C 70.764 119.805,71.980 119.095,72.910 118.722 C 73.974 118.295,74.295 118.035,73.778 118.022 C 73.326 118.010,72.133 118.522,71.126 119.161 M77.636 118.466 C 78.426 118.677,80.226 119.776,81.636 120.909 C 83.046 122.041,83.930 122.629,83.600 122.214 C 82.366 120.665,78.315 118.000,77.256 118.041 C 76.336 118.077,76.385 118.132,77.636 118.466 M67.821 122.624 C 67.452 123.187,67.207 124.010,67.275 124.454 C 67.362 125.015,67.598 124.704,68.050 123.430 C 68.796 121.331,68.758 121.195,67.821 122.624 M66.800 145.000 C 66.601 164.069,66.594 164.213,65.675 166.060 C 64.622 168.176,61.925 170.994,59.941 172.052 C 59.204 172.445,58.870 172.773,59.200 172.781 C 60.136 172.804,63.648 169.964,64.870 168.196 C 67.206 164.816,67.218 164.689,67.104 144.385 L 67.000 125.800 66.800 145.000 M123.398 135.150 C 113.636 142.542,99.581 145.498,89.000 142.385 C 88.340 142.190,87.035 141.911,86.100 141.765 L 84.400 141.498 84.400 153.129 C 84.400 165.089,84.308 165.995,82.591 171.000 C 82.214 172.100,81.605 173.450,81.238 174.000 C 80.871 174.550,80.323 175.493,80.020 176.096 C 78.978 178.169,74.099 183.003,71.034 184.999 C 69.339 186.103,67.879 187.357,67.772 187.799 C 67.279 189.833,67.805 367.009,68.306 368.000 C 68.784 368.944,68.797 368.922,68.535 367.600 C 68.382 366.830,68.198 326.014,68.126 276.897 L 67.995 187.593 70.297 186.130 C 81.538 178.987,84.818 171.855,85.078 154.000 C 85.266 141.075,85.112 141.962,87.074 142.458 C 93.496 144.082,100.462 144.446,105.400 143.414 C 106.940 143.092,108.740 142.719,109.400 142.584 C 110.060 142.450,110.960 142.197,111.400 142.023 C 111.840 141.849,112.650 141.529,113.200 141.312 C 116.064 140.180,120.833 137.602,122.839 136.100 C 125.610 134.026,125.294 134.011,126.863 136.291 C 132.106 143.912,145.524 154.171,149.989 153.973 C 150.329 153.958,150.157 153.753,149.600 153.512 C 147.252 152.493,141.784 149.838,141.600 149.627 C 141.490 149.501,140.346 148.708,139.057 147.866 C 135.867 145.781,130.814 140.866,128.108 137.215 C 126.879 135.557,125.766 134.073,125.635 133.918 C 125.504 133.763,124.497 134.317,123.398 135.150 M153.800 138.000 C 153.936 138.220,154.442 138.387,154.924 138.372 C 155.769 138.345,155.771 138.331,155.000 138.000 C 153.899 137.527,153.508 137.527,153.800 138.000 M172.553 138.384 C 167.992 139.732,161.640 139.798,156.800 138.549 C 156.147 138.381,155.939 138.427,156.200 138.681 C 157.793 140.234,171.276 140.284,172.980 138.744 C 173.189 138.555,173.729 138.397,174.180 138.394 C 174.631 138.391,175.270 138.213,175.600 138.000 C 176.539 137.393,175.436 137.532,172.553 138.384 M279.001 149.253 C 278.885 149.556,278.837 156.373,278.895 164.402 L 279.000 179.000 293.200 179.228 C 309.242 179.485,309.892 179.597,315.877 183.156 C 320.634 185.985,327.200 194.427,327.200 197.716 C 327.200 198.004,327.349 198.411,327.530 198.620 C 328.293 199.497,329.388 204.771,329.991 210.468 C 330.231 212.740,330.397 226.276,330.392 243.268 C 330.384 272.193,330.185 277.366,328.824 284.028 C 328.279 286.700,325.852 293.031,325.156 293.600 C 325.022 293.710,324.614 294.381,324.250 295.092 C 322.326 298.847,316.462 303.584,311.413 305.461 C 308.698 306.471,309.209 306.733,312.000 305.762 C 317.394 303.885,326.820 294.938,326.798 291.715 C 326.797 291.542,327.316 290.050,327.952 288.400 C 330.549 281.667,330.558 281.526,330.709 245.800 C 330.873 207.025,330.588 203.057,327.153 196.305 C 326.959 195.923,326.800 195.447,326.800 195.246 C 326.800 194.258,323.212 189.091,320.857 186.688 C 317.614 183.378,314.644 181.559,309.850 179.948 L 306.200 178.721 292.700 178.504 L 279.200 178.288 279.200 163.944 L 279.200 149.600 304.300 149.600 C 333.179 149.601,334.069 149.681,340.138 152.840 C 347.264 156.548,352.540 164.976,354.763 176.200 C 354.981 177.300,355.374 179.100,355.637 180.200 C 356.875 185.375,356.501 302.038,355.226 308.600 C 354.095 314.416,353.483 316.750,352.653 318.415 C 352.294 319.134,352.000 319.899,352.000 320.115 C 352.000 320.636,349.270 325.976,348.671 326.627 C 348.412 326.909,347.480 328.033,346.600 329.126 C 344.855 331.292,341.302 333.893,338.279 335.216 C 333.404 337.349,334.085 337.301,305.700 337.485 L 279.200 337.656 279.200 322.854 L 279.200 308.052 291.500 307.850 C 304.387 307.638,307.936 307.402,308.600 306.709 C 308.876 306.420,308.690 306.384,308.000 306.592 C 307.450 306.758,300.700 307.007,293.000 307.147 L 279.000 307.400 279.000 322.800 L 279.000 338.200 302.000 338.325 C 334.466 338.501,337.819 337.960,345.154 331.365 C 348.508 328.350,350.632 325.060,352.880 319.400 C 353.740 317.235,354.084 316.162,355.189 312.200 C 356.962 305.837,357.200 297.736,357.200 243.600 C 357.200 189.464,356.962 181.363,355.189 175.000 C 355.005 174.340,354.641 172.990,354.382 172.000 C 353.833 169.910,353.677 169.495,351.628 164.653 C 348.515 157.299,341.752 151.834,333.000 149.598 C 329.914 148.809,279.295 148.486,279.001 149.253 M50.400 173.179 C 50.730 173.404,51.525 173.591,52.167 173.594 C 53.704 173.602,53.384 173.370,51.400 173.038 C 50.254 172.846,49.970 172.886,50.400 173.179 M56.400 173.200 L 55.000 173.495 56.476 173.547 C 57.288 173.576,58.064 173.420,58.200 173.200 C 58.468 172.766,58.461 172.766,56.400 173.200 M102.400 173.749 C 99.882 174.380,98.169 175.513,96.894 177.390 L 95.800 179.000 95.800 251.600 L 95.800 324.200 97.059 326.000 C 100.763 331.299,108.578 330.923,111.891 325.286 L 113.000 323.400 113.000 251.600 L 113.000 179.800 111.667 177.792 C 110.215 175.606,108.475 174.267,106.600 173.895 C 105.940 173.763,105.130 173.575,104.800 173.477 C 104.470 173.378,103.390 173.501,102.400 173.749 M141.899 173.748 C 139.428 174.337,137.520 175.894,136.345 178.281 L 135.400 180.200 135.400 251.800 L 135.400 323.400 136.509 325.286 C 139.836 330.946,147.621 331.321,151.341 326.000 L 152.600 324.200 152.600 251.600 L 152.600 179.000 151.506 177.390 C 150.096 175.314,145.862 172.987,144.000 173.265 C 143.890 173.282,142.945 173.499,141.899 173.748 M182.794 173.749 C 180.595 174.299,178.000 175.859,178.000 176.633 C 178.000 176.945,177.842 177.200,177.649 177.200 C 176.210 177.200,176.200 177.697,176.200 251.800 L 176.200 323.800 177.170 325.493 C 179.623 329.777,185.696 331.001,190.085 328.096 C 190.918 327.545,191.600 326.848,191.600 326.547 C 191.600 326.246,191.736 326.000,191.902 326.000 C 192.069 326.000,192.474 325.415,192.802 324.700 C 193.764 322.609,193.701 180.346,192.738 178.600 C 191.414 176.200,189.089 174.290,187.000 173.887 C 186.340 173.760,185.530 173.575,185.200 173.477 C 184.870 173.378,183.788 173.501,182.794 173.749 M222.600 173.759 C 219.048 174.768,216.397 177.286,216.449 179.600 C 216.469 180.459,216.526 180.412,216.855 179.270 C 218.728 172.771,228.935 172.268,231.964 178.526 L 232.800 180.253 232.796 251.626 L 232.793 323.000 231.864 324.917 C 228.689 331.474,218.888 330.368,216.650 323.200 C 216.540 322.846,216.450 322.972,216.432 323.508 C 216.301 327.261,222.867 330.998,227.050 329.552 C 228.903 328.911,231.600 327.239,231.600 326.731 C 231.600 326.531,232.005 325.820,232.500 325.150 L 233.400 323.933 233.400 251.666 L 233.400 179.400 232.200 177.538 C 229.981 174.094,226.392 172.682,222.600 173.759 M108.906 175.517 C 109.753 176.078,110.886 177.287,111.423 178.204 L 112.400 179.870 112.400 251.540 C 112.400 323.174,112.400 323.210,111.572 324.970 C 109.036 330.366,100.657 330.652,97.278 325.457 L 96.200 323.800 96.200 251.800 L 96.200 179.800 97.200 178.035 C 99.469 174.031,104.896 172.864,108.906 175.517 M148.479 175.041 C 150.083 175.870,151.520 177.988,151.996 180.221 C 152.928 184.599,152.330 323.151,151.372 324.979 C 148.450 330.549,139.502 330.581,136.815 325.030 C 135.518 322.352,135.531 180.989,136.828 178.230 C 138.582 174.499,144.368 172.915,148.479 175.041 M188.515 174.918 C 189.710 175.599,190.934 176.794,191.937 178.262 L 192.800 179.523 192.800 251.607 L 192.800 323.691 191.930 325.239 C 189.138 330.207,181.002 330.469,177.970 325.689 L 176.800 323.843 176.800 251.676 L 176.800 179.509 177.670 177.961 C 179.593 174.540,185.126 172.988,188.515 174.918 M215.850 182.050 C 215.479 183.904,215.626 320.432,216.000 321.600 C 216.176 322.150,216.338 290.695,216.360 251.700 C 216.382 212.705,216.332 180.800,216.250 180.800 C 216.168 180.800,215.988 181.363,215.850 182.050 " stroke="none" fill="#b48840" fill-rule="evenodd"></path></g></svg>